<?xml version="1.0" encoding="UTF-8"?>
<svg id="Calque_2" data-name="Calque 2" xmlns="http://www.w3.org/2000/svg" xmlns:xlink="http://www.w3.org/1999/xlink" viewBox="0 0 2924.67 2663.15">
  <defs>
    <style>
      .cls-1 {
        filter: url(#luminosity-noclip-11);
      }

      .cls-2 {
        fill: url(#linear-gradient-8);
      }

      .cls-2, .cls-3, .cls-4, .cls-5, .cls-6, .cls-7, .cls-8, .cls-9, .cls-10, .cls-11, .cls-12, .cls-13, .cls-14, .cls-15, .cls-16, .cls-17, .cls-18, .cls-19, .cls-20, .cls-21, .cls-22, .cls-23, .cls-24, .cls-25, .cls-26, .cls-27, .cls-28 {
        stroke-width: 0px;
      }

      .cls-2, .cls-5, .cls-7, .cls-10, .cls-13, .cls-18, .cls-19, .cls-22, .cls-23, .cls-27 {
        fill-rule: evenodd;
      }

      .cls-3 {
        fill: #fefefe;
      }

      .cls-4 {
        fill: url(#linear-gradient-17);
      }

      .cls-5 {
        fill: url(#linear-gradient-7);
      }

      .cls-29 {
        mask: url(#mask-23);
      }

      .cls-6 {
        fill: url(#linear-gradient-19);
      }

      .cls-30 {
        mask: url(#mask-10);
      }

      .cls-7 {
        fill: #ff897d;
      }

      .cls-8 {
        fill: url(#linear-gradient-12);
      }

      .cls-8, .cls-9, .cls-15, .cls-17, .cls-24, .cls-25, .cls-26, .cls-28 {
        mix-blend-mode: multiply;
      }

      .cls-31 {
        letter-spacing: 0em;
      }

      .cls-32 {
        filter: url(#luminosity-noclip-7);
      }

      .cls-9 {
        fill: url(#linear-gradient-16);
      }

      .cls-10 {
        fill: url(#linear-gradient-9);
      }

      .cls-11 {
        fill: url(#linear-gradient-21);
      }

      .cls-33 {
        filter: url(#luminosity-noclip-13);
      }

      .cls-34 {
        mask: url(#mask-17);
      }

      .cls-12 {
        fill: url(#linear-gradient-6);
      }

      .cls-35 {
        filter: url(#luminosity-noclip-5);
      }

      .cls-36 {
        font-size: 300px;
      }

      .cls-36, .cls-37 {
        fill: #fff;
        font-family: Raleway-ExtraBold, Raleway;
        font-weight: 700;
      }

      .cls-38 {
        mask: url(#mask-2);
      }

      .cls-13 {
        fill: url(#linear-gradient-3);
      }

      .cls-39 {
        letter-spacing: 0em;
      }

      .cls-40 {
        mask: url(#mask-13);
      }

      .cls-14 {
        fill: url(#linear-gradient-15);
      }

      .cls-15 {
        fill: url(#linear-gradient-14);
      }

      .cls-16 {
        fill: url(#linear-gradient-11);
      }

      .cls-41 {
        mask: url(#mask-3);
      }

      .cls-17 {
        fill: url(#linear-gradient-5);
      }

      .cls-42 {
        letter-spacing: -.01em;
      }

      .cls-18 {
        fill: #fb0047;
      }

      .cls-43 {
        filter: url(#luminosity-noclip-15);
      }

      .cls-44 {
        mask: url(#mask-9);
      }

      .cls-45 {
        letter-spacing: -.03em;
      }

      .cls-19 {
        fill: #69044a;
      }

      .cls-46 {
        mask: url(#mask-12);
      }

      .cls-47 {
        mask: url(#mask-5);
      }

      .cls-20 {
        fill: url(#linear-gradient-13);
      }

      .cls-21 {
        fill: url(#linear-gradient-23);
      }

      .cls-48 {
        letter-spacing: -.01em;
      }

      .cls-49 {
        letter-spacing: 0em;
      }

      .cls-50 {
        mask: url(#mask-20);
      }

      .cls-22 {
        fill: url(#linear-gradient);
      }

      .cls-51 {
        letter-spacing: 0em;
      }

      .cls-52 {
        filter: url(#luminosity-noclip-9);
      }

      .cls-37 {
        font-size: 100px;
      }

      .cls-53 {
        letter-spacing: -.01em;
      }

      .cls-54 {
        mask: url(#mask-8);
      }

      .cls-23 {
        fill: url(#linear-gradient-2);
      }

      .cls-55 {
        mask: url(#mask-4);
      }

      .cls-56 {
        mask: url(#mask-19);
      }

      .cls-57 {
        mask: url(#mask-15);
      }

      .cls-24 {
        fill: url(#linear-gradient-18);
      }

      .cls-25 {
        fill: url(#linear-gradient-10);
      }

      .cls-58 {
        letter-spacing: -.03em;
      }

      .cls-59 {
        mask: url(#mask-6);
      }

      .cls-60 {
        mask: url(#mask-16);
      }

      .cls-61 {
        mask: url(#mask-18);
      }

      .cls-62 {
        filter: url(#luminosity-noclip);
      }

      .cls-63 {
        mask: url(#mask-1);
      }

      .cls-64 {
        mask: url(#mask);
      }

      .cls-65 {
        mask: url(#mask-22);
      }

      .cls-66 {
        mask: url(#mask-7);
      }

      .cls-67 {
        letter-spacing: 0em;
      }

      .cls-68 {
        mask: url(#mask-14);
      }

      .cls-69 {
        mask: url(#mask-21);
      }

      .cls-26 {
        fill: url(#linear-gradient-20);
      }

      .cls-70 {
        letter-spacing: 0em;
      }

      .cls-27 {
        fill: url(#linear-gradient-4);
      }

      .cls-71 {
        mask: url(#mask-11);
      }

      .cls-28 {
        fill: url(#linear-gradient-22);
      }

      .cls-72 {
        filter: url(#luminosity-noclip-3);
      }
    </style>
    <linearGradient id="linear-gradient" x1="1443.04" y1="2289.42" x2="1665.14" y2="1467.97" gradientTransform="translate(-31.4 2599.29) scale(.98 -.98)" gradientUnits="userSpaceOnUse">
      <stop offset="0" stop-color="#69044a"/>
      <stop offset="1" stop-color="#fb0047"/>
    </linearGradient>
    <linearGradient id="linear-gradient-2" x1="983.68" y1="1107.04" x2="1502.77" y2="1232.82" xlink:href="#linear-gradient"/>
    <linearGradient id="linear-gradient-3" x1="1516.83" y1="680.08" x2="1812.41" y2="1220.08" xlink:href="#linear-gradient"/>
    <linearGradient id="linear-gradient-4" x1="1670.56" y1="1797.61" x2="1524.07" y2="1288.4" gradientTransform="translate(-31.4 2599.29) scale(.98 -.98)" gradientUnits="userSpaceOnUse">
      <stop offset="0" stop-color="#69044a"/>
      <stop offset="1" stop-color="#ba0082"/>
    </linearGradient>
    <filter id="luminosity-noclip" x="1400.64" y="943.48" width="273.65" height="273.65" color-interpolation-filters="sRGB" filterUnits="userSpaceOnUse">
      <feFlood flood-color="#fff" result="bg"/>
      <feBlend in="SourceGraphic" in2="bg"/>
    </filter>
    <filter id="luminosity-noclip-2" x="1400.64" y="-9516.85" width="273.65" height="32766" color-interpolation-filters="sRGB" filterUnits="userSpaceOnUse">
      <feFlood flood-color="#fff" result="bg"/>
      <feBlend in="SourceGraphic" in2="bg"/>
    </filter>
    <mask id="mask-2" x="1400.64" y="-9516.85" width="273.65" height="32766" maskUnits="userSpaceOnUse"/>
    <linearGradient id="linear-gradient-5" x1="1571" y1="1739.41" x2="1596.89" y2="1520.88" gradientTransform="translate(-31.4 2599.29) scale(.98 -.98)" gradientUnits="userSpaceOnUse">
      <stop offset="0" stop-color="#fff"/>
      <stop offset="1" stop-color="#000"/>
    </linearGradient>
    <mask id="mask-1" x="1400.64" y="943.48" width="273.65" height="273.65" maskUnits="userSpaceOnUse">
      <g class="cls-62">
        <g class="cls-38">
          <rect class="cls-17" x="1400.64" y="943.48" width="273.65" height="273.65"/>
        </g>
      </g>
    </mask>
    <linearGradient id="linear-gradient-6" x1="1571" y1="1739.41" x2="1596.89" y2="1520.88" gradientTransform="translate(-31.4 2599.29) scale(.98 -.98)" gradientUnits="userSpaceOnUse">
      <stop offset="0" stop-color="#fff"/>
      <stop offset="1" stop-color="#fff"/>
    </linearGradient>
    <mask id="mask" x="1400.64" y="943.48" width="273.65" height="273.65" maskUnits="userSpaceOnUse">
      <g id="id44">
        <g class="cls-63">
          <rect class="cls-12" x="1400.64" y="943.48" width="273.65" height="273.65"/>
        </g>
      </g>
    </mask>
    <linearGradient id="linear-gradient-7" x1="1594.19" y1="1666.16" x2="1594.23" y2="1361.69" gradientTransform="translate(-31.4 2599.29) scale(.98 -.98)" gradientUnits="userSpaceOnUse">
      <stop offset="0" stop-color="#69044a"/>
      <stop offset="1" stop-color="#69044a"/>
    </linearGradient>
    <linearGradient id="linear-gradient-8" x1="2402.7" y1="1235.04" x2="1755.48" y2="1185.84" xlink:href="#linear-gradient-4"/>
    <linearGradient id="linear-gradient-9" x1="1056.95" y1="2501.42" x2="1506.46" y2="1782.87" xlink:href="#linear-gradient-4"/>
    <filter id="luminosity-noclip-3" x="996.55" y="291.7" width="991.34" height="550.95" color-interpolation-filters="sRGB" filterUnits="userSpaceOnUse">
      <feFlood flood-color="#fff" result="bg"/>
      <feBlend in="SourceGraphic" in2="bg"/>
    </filter>
    <filter id="luminosity-noclip-4" x="996.55" y="-9516.85" width="991.34" height="32766" color-interpolation-filters="sRGB" filterUnits="userSpaceOnUse">
      <feFlood flood-color="#fff" result="bg"/>
      <feBlend in="SourceGraphic" in2="bg"/>
    </filter>
    <mask id="mask-5" x="996.55" y="-9516.85" width="991.34" height="32766" maskUnits="userSpaceOnUse"/>
    <linearGradient id="linear-gradient-10" x1="1323.87" y1="2414.51" x2="1502.01" y2="2136.96" xlink:href="#linear-gradient-5"/>
    <mask id="mask-4" x="996.55" y="291.7" width="991.34" height="550.95" maskUnits="userSpaceOnUse">
      <g class="cls-72">
        <g class="cls-47">
          <rect class="cls-25" x="996.55" y="291.7" width="991.34" height="550.95"/>
        </g>
      </g>
    </mask>
    <linearGradient id="linear-gradient-11" x1="1323.87" y1="2414.51" x2="1502.01" y2="2136.96" xlink:href="#linear-gradient-6"/>
    <mask id="mask-3" x="996.55" y="291.7" width="991.34" height="550.95" maskUnits="userSpaceOnUse">
      <g id="id46">
        <g class="cls-55">
          <rect class="cls-16" x="996.55" y="291.7" width="991.34" height="550.95"/>
        </g>
      </g>
    </mask>
    <filter id="luminosity-noclip-5" x="1257.06" y="811.11" width="560.76" height="307.25" color-interpolation-filters="sRGB" filterUnits="userSpaceOnUse">
      <feFlood flood-color="#fff" result="bg"/>
      <feBlend in="SourceGraphic" in2="bg"/>
    </filter>
    <filter id="luminosity-noclip-6" x="1257.06" y="-9516.85" width="560.76" height="32766" color-interpolation-filters="sRGB" filterUnits="userSpaceOnUse">
      <feFlood flood-color="#fff" result="bg"/>
      <feBlend in="SourceGraphic" in2="bg"/>
    </filter>
    <mask id="mask-8" x="1257.06" y="-9516.85" width="560.76" height="32766" maskUnits="userSpaceOnUse"/>
    <linearGradient id="linear-gradient-12" x1="1599.33" y1="1933.49" x2="1593.11" y2="1604.17" xlink:href="#linear-gradient-5"/>
    <mask id="mask-7" x="1257.06" y="811.11" width="560.76" height="307.25" maskUnits="userSpaceOnUse">
      <g class="cls-35">
        <g class="cls-54">
          <rect class="cls-8" x="1257.06" y="811.11" width="560.76" height="307.25"/>
        </g>
      </g>
    </mask>
    <linearGradient id="linear-gradient-13" x1="1599.33" y1="1933.49" x2="1593.11" y2="1604.17" xlink:href="#linear-gradient-6"/>
    <mask id="mask-6" x="1257.06" y="811.11" width="560.76" height="307.25" maskUnits="userSpaceOnUse">
      <g id="id48">
        <g class="cls-66">
          <rect class="cls-20" x="1257.06" y="811.11" width="560.76" height="307.25"/>
        </g>
      </g>
    </mask>
    <filter id="luminosity-noclip-7" x="958.82" y="434.36" width="1200.25" height="694.06" color-interpolation-filters="sRGB" filterUnits="userSpaceOnUse">
      <feFlood flood-color="#fff" result="bg"/>
      <feBlend in="SourceGraphic" in2="bg"/>
    </filter>
    <filter id="luminosity-noclip-8" x="958.82" y="-9516.85" width="1200.25" height="32766" color-interpolation-filters="sRGB" filterUnits="userSpaceOnUse">
      <feFlood flood-color="#fff" result="bg"/>
      <feBlend in="SourceGraphic" in2="bg"/>
    </filter>
    <mask id="mask-11" x="958.82" y="-9516.85" width="1200.25" height="32766" maskUnits="userSpaceOnUse"/>
    <linearGradient id="linear-gradient-14" x1="1464.83" y1="2680.66" x2="1626.24" y2="1791.04" xlink:href="#linear-gradient-5"/>
    <mask id="mask-10" x="958.82" y="434.36" width="1200.25" height="694.06" maskUnits="userSpaceOnUse">
      <g class="cls-32">
        <g class="cls-71">
          <rect class="cls-15" x="958.82" y="434.36" width="1200.25" height="694.06"/>
        </g>
      </g>
    </mask>
    <linearGradient id="linear-gradient-15" x1="1464.83" y1="2680.66" x2="1626.24" y2="1791.04" xlink:href="#linear-gradient-6"/>
    <mask id="mask-9" x="958.82" y="434.36" width="1200.25" height="694.06" maskUnits="userSpaceOnUse">
      <g id="id50">
        <g class="cls-30">
          <rect class="cls-14" x="958.82" y="434.36" width="1200.25" height="694.06"/>
        </g>
      </g>
    </mask>
    <filter id="luminosity-noclip-9" x="1672.86" y="1291.02" width="496.61" height="716.86" color-interpolation-filters="sRGB" filterUnits="userSpaceOnUse">
      <feFlood flood-color="#fff" result="bg"/>
      <feBlend in="SourceGraphic" in2="bg"/>
    </filter>
    <filter id="luminosity-noclip-10" x="1672.86" y="-9516.85" width="496.61" height="32766" color-interpolation-filters="sRGB" filterUnits="userSpaceOnUse">
      <feFlood flood-color="#fff" result="bg"/>
      <feBlend in="SourceGraphic" in2="bg"/>
    </filter>
    <mask id="mask-14" x="1672.86" y="-9516.85" width="496.61" height="32766" maskUnits="userSpaceOnUse"/>
    <linearGradient id="linear-gradient-16" x1="2191.22" y1="1071.41" x2="1868.11" y2="905.7" xlink:href="#linear-gradient-5"/>
    <mask id="mask-13" x="1672.86" y="1291.02" width="496.61" height="716.86" maskUnits="userSpaceOnUse">
      <g class="cls-52">
        <g class="cls-68">
          <rect class="cls-9" x="1672.86" y="1291.02" width="496.61" height="716.86"/>
        </g>
      </g>
    </mask>
    <linearGradient id="linear-gradient-17" x1="2191.22" y1="1071.41" x2="1868.11" y2="905.7" xlink:href="#linear-gradient-6"/>
    <mask id="mask-12" x="1672.86" y="1291.02" width="496.61" height="716.86" maskUnits="userSpaceOnUse">
      <g id="id52">
        <g class="cls-40">
          <rect class="cls-4" x="1672.86" y="1291.02" width="496.61" height="716.86"/>
        </g>
      </g>
    </mask>
    <filter id="luminosity-noclip-11" x="711.85" y="-.1" width="1528.94" height="1076.03" color-interpolation-filters="sRGB" filterUnits="userSpaceOnUse">
      <feFlood flood-color="#fff" result="bg"/>
      <feBlend in="SourceGraphic" in2="bg"/>
    </filter>
    <filter id="luminosity-noclip-12" x="711.85" y="-9516.85" width="1528.94" height="32766" color-interpolation-filters="sRGB" filterUnits="userSpaceOnUse">
      <feFlood flood-color="#fff" result="bg"/>
      <feBlend in="SourceGraphic" in2="bg"/>
    </filter>
    <mask id="mask-17" x="711.85" y="-9516.85" width="1528.94" height="32766" maskUnits="userSpaceOnUse"/>
    <linearGradient id="linear-gradient-18" x1="1286.02" y1="2696.83" x2="1443.45" y2="2311.58" xlink:href="#linear-gradient-5"/>
    <mask id="mask-16" x="711.85" y="-.1" width="1528.94" height="1076.03" maskUnits="userSpaceOnUse">
      <g class="cls-1">
        <g class="cls-34">
          <rect class="cls-24" x="711.85" y="-.1" width="1528.94" height="1076.03"/>
        </g>
      </g>
    </mask>
    <linearGradient id="linear-gradient-19" x1="1286.02" y1="2696.83" x2="1443.45" y2="2311.58" xlink:href="#linear-gradient-6"/>
    <mask id="mask-15" x="711.85" y="-.1" width="1528.94" height="1076.03" maskUnits="userSpaceOnUse">
      <g id="id54">
        <g class="cls-60">
          <rect class="cls-6" x="711.85" y="-.1" width="1528.94" height="1076.03"/>
        </g>
      </g>
    </mask>
    <filter id="luminosity-noclip-13" x="1713.33" y="854.59" width="541.91" height="756.49" color-interpolation-filters="sRGB" filterUnits="userSpaceOnUse">
      <feFlood flood-color="#fff" result="bg"/>
      <feBlend in="SourceGraphic" in2="bg"/>
    </filter>
    <filter id="luminosity-noclip-14" x="1713.33" y="-9516.85" width="541.91" height="32766" color-interpolation-filters="sRGB" filterUnits="userSpaceOnUse">
      <feFlood flood-color="#fff" result="bg"/>
      <feBlend in="SourceGraphic" in2="bg"/>
    </filter>
    <mask id="mask-20" x="1713.33" y="-9516.85" width="541.91" height="32766" maskUnits="userSpaceOnUse"/>
    <linearGradient id="linear-gradient-20" x1="2337.64" y1="1694.98" x2="2126.36" y2="1471.25" xlink:href="#linear-gradient-5"/>
    <mask id="mask-19" x="1713.33" y="854.59" width="541.91" height="756.49" maskUnits="userSpaceOnUse">
      <g class="cls-33">
        <g class="cls-50">
          <rect class="cls-26" x="1713.33" y="854.59" width="541.91" height="756.49"/>
        </g>
      </g>
    </mask>
    <linearGradient id="linear-gradient-21" x1="2337.64" y1="1694.98" x2="2126.36" y2="1471.25" xlink:href="#linear-gradient-6"/>
    <mask id="mask-18" x="1713.33" y="854.59" width="541.91" height="756.49" maskUnits="userSpaceOnUse">
      <g id="id56">
        <g class="cls-56">
          <rect class="cls-11" x="1713.33" y="854.59" width="541.91" height="756.49"/>
        </g>
      </g>
    </mask>
    <filter id="luminosity-noclip-15" x="1734.08" y="1291.02" width="435.38" height="716.86" color-interpolation-filters="sRGB" filterUnits="userSpaceOnUse">
      <feFlood flood-color="#fff" result="bg"/>
      <feBlend in="SourceGraphic" in2="bg"/>
    </filter>
    <filter id="luminosity-noclip-16" x="1734.08" y="-9516.85" width="435.38" height="32766" color-interpolation-filters="sRGB" filterUnits="userSpaceOnUse">
      <feFlood flood-color="#fff" result="bg"/>
      <feBlend in="SourceGraphic" in2="bg"/>
    </filter>
    <mask id="mask-23" x="1734.08" y="-9516.85" width="435.38" height="32766" maskUnits="userSpaceOnUse"/>
    <linearGradient id="linear-gradient-22" x1="2392.49" y1="1068.06" x2="1914.04" y2="937.6" xlink:href="#linear-gradient-5"/>
    <mask id="mask-22" x="1734.08" y="1291.02" width="435.38" height="716.86" maskUnits="userSpaceOnUse">
      <g class="cls-43">
        <g class="cls-29">
          <rect class="cls-28" x="1734.08" y="1291.02" width="435.38" height="716.86"/>
        </g>
      </g>
    </mask>
    <linearGradient id="linear-gradient-23" x1="2392.49" y1="1068.06" x2="1914.04" y2="937.6" xlink:href="#linear-gradient-6"/>
    <mask id="mask-21" x="1734.08" y="1291.02" width="435.38" height="716.86" maskUnits="userSpaceOnUse">
      <g id="id58">
        <g class="cls-65">
          <rect class="cls-21" x="1734.08" y="1291.02" width="435.38" height="716.86"/>
        </g>
      </g>
    </mask>
  </defs>
  <g id="Layer_1" data-name="Layer 1">
    <text class="cls-36" transform="translate(0 2480.85)"><tspan x="0" y="0">L</tspan><tspan class="cls-53" x="175.5" y="0">E</tspan><tspan class="cls-67" x="351.6" y="0">GEN</tspan><tspan class="cls-70" x="978.59" y="0">D</tspan><tspan x="1192.19" y="0">S</tspan><tspan class="cls-58" x="1376.69" y="0"> </tspan><tspan x="1437.58" y="0">A</tspan><tspan class="cls-39" x="1638.58" y="0">R</tspan><tspan x="1837.78" y="0">CHIVES</tspan></text>
    <text class="cls-37" transform="translate(468.7 2640.85)"><tspan x="0" y="0">WHERE L</tspan><tspan class="cls-48" x="448.8" y="0">E</tspan><tspan x="507.5" y="0">GEN</tspan><tspan class="cls-31" x="716.49" y="0">D</tspan><tspan x="787.69" y="0">S </tspan><tspan class="cls-42" x="872.49" y="0">E</tspan><tspan x="931.19" y="0">CHO</tspan><tspan class="cls-45" x="1150.69" y="0"> </tspan><tspan x="1171.09" y="0">TH</tspan><tspan class="cls-51" x="1307.89" y="0">R</tspan><tspan class="cls-49" x="1374.29" y="0">OUGH</tspan><tspan class="cls-45" x="1672.89" y="0"> </tspan><tspan x="1693.28" y="0">TIME !</tspan></text>
    <g>
      <path class="cls-22" d="m1257.17,1091.52c0-154.81,125.5-280.31,280.27-280.31,31.58,0,61.92,5.23,90.25,14.86l573.46,191.41c-19.98-325.32-290.15-583.01-620.53-583.01s-621.7,278.33-621.7,621.7c0,119.6,33.78,231.34,92.34,326.17,0,0,147.71-.59,207.88-257.32-1.28-10.98-1.98-22.14-1.98-33.49h0Z"/>
      <path class="cls-23" d="m1409.27,1340.83c-80.88-41.69-138.89-121.54-150.13-215.82-60.17,256.74-207.88,257.32-207.88,257.32,99.58,161.33,270.9,273.72,469.49,292.68-153.49-140.8-111.48-334.18-111.48-334.18h0Z"/>
      <path class="cls-13" d="m1409.27,1340.83s-42.02,193.39,111.48,334.18c73.2,67.16,190.82,122.31,378.69,138.85l-21.59-291.25-204.88-185.74c-40.15,22.25-86.34,34.92-135.52,34.92-46.19,0-89.74-11.16-128.17-30.96Z"/>
      <path class="cls-27" d="m1409.27,1340.83c38.43,19.8,81.98,30.96,128.17,30.96,49.19,0,95.38-12.66,135.52-34.92,86.34-47.76,144.75-139.73,144.75-245.36,0-123.23-79.49-227.9-190.02-265.45-28.33-9.62-58.67-14.86-90.25-14.86-154.78,0-280.27,125.5-280.27,280.31,0,11.35.7,22.51,1.98,33.49,11.24,94.28,69.24,174.14,150.13,215.82h0Z"/>
      <g class="cls-64">
        <path class="cls-7" d="m1474.97,1202.09c19.43,9.99,40.66,15.04,62.47,15.04,23.24,0,45.75-5.71,66.06-16.94,43.66-24.16,70.78-69.83,70.78-119.9,0-58.59-37.37-110.78-92.74-129.6-14.24-4.83-29.1-7.21-44.1-7.21-75.61,0-136.81,61.19-136.81,136.8,0,5.53.33,11.05.95,16.54,5.38,45.09,33.16,84.54,73.38,105.26h0Z"/>
      </g>
      <path class="cls-5" d="m1474.97,1213.29c19.43,9.99,40.66,15.04,62.47,15.04,23.24,0,45.75-5.71,66.06-16.94,43.66-24.16,70.78-69.79,70.78-119.86,0-58.63-37.37-110.82-92.74-129.63-14.24-4.83-29.1-7.21-44.1-7.21-75.61,0-136.81,61.23-136.81,136.84,0,5.53.33,11.05.95,16.54,5.38,45.05,33.16,84.51,73.38,105.22Z"/>
      <path class="cls-2" d="m1672.97,1336.88l204.88,185.74,21.59,291.25,2.89,38.98c16.29,108.04,267.02,154.92,267.02,154.92l-34.66-652.3c-176.59-69.65-209.97-271.08-209.97-271.08l238.51,93.77.81,324.48,91.09,108.33v-563.36l-.18-12.15-53.8-17.97-573.46-191.41c110.53,37.55,190.02,142.22,190.02,265.45,0,105.62-58.41,197.6-144.75,245.36h0Z"/>
      <path class="cls-19" d="m1987.9,336.32c-909.11-203.85-991.34,506.34-991.34,506.34,87.1-238.18,315.74-408.18,584.08-408.18,130.62,0,251.87,40.29,351.9,109.1l55.37-207.26h0Z"/>
      <path class="cls-10" d="m996.55,842.65s82.24-710.19,991.34-506.34c0,0,73.38-144.75,252.79-199.76C1685.74-114.8,962.95-51.96,764.99,602.93c-121.98,403.35,22.91,732.45-102.04,952.29,232.4-150.82,300.11-426.92,300.11-426.92-2.74-23.64-4.14-47.72-4.14-72.14,0-75.03,13.29-146.94,37.62-213.52h0Z"/>
      <g class="cls-41">
        <path class="cls-7" d="m996.55,842.65s82.24-710.19,991.34-506.34c-935.6-230.35-991.34,506.34-991.34,506.34Z"/>
      </g>
      <path class="cls-18" d="m1051.27,1382.34c-46.63-75.47-77.52-161.66-88.2-254.03,0,0-67.71,276.1-300.11,426.92,0,0,258.82,25.18,388.31-172.89h0Z"/>
      <g class="cls-59">
        <path class="cls-7" d="m1537.44,864.72c31.58,0,61.92,5.2,90.25,14.82,102.44,34.8,178.23,127.25,188.78,238.7.84-8.78,1.24-17.71,1.24-26.72,0-123.23-79.49-227.9-190.02-265.45-28.33-9.62-58.67-14.86-90.25-14.86-154.78,0-280.27,125.5-280.27,280.31,0,9,.44,17.93,1.28,26.72,13.47-142.26,133.22-253.52,278.99-253.52Z"/>
      </g>
      <g class="cls-44">
        <path class="cls-7" d="m1840.84,594c155.84,46.74,318.11,233.54,318.11,233.54-45.71-115.47-124.95-213.95-225.74-283.49-.22-.15-.44-.29-.7-.48-100.02-68.8-221.27-109.1-351.9-109.1-188.59,0-357.53,83.96-471.57,216.55-48.2,56.07-86.59,120.85-112.5,191.63-24.34,66.57-37.62,138.49-37.62,213.52,0,24.41,1.39,48.49,4.14,72.14,0,0,8.78-287.3,205.32-461.65,74.62,17.28,152.36,26.42,232.25,26.42,157.56,0,306.81-35.57,440.21-99.07Z"/>
      </g>
      <g class="cls-46">
        <path class="cls-18" d="m1958.07,1474.27l-223.87-183.14c-18.15,17.9-38.72,33.34-61.23,45.75l204.88,185.74,21.59,291.25,2.89,38.98c16.29,108.04,267.02,154.92,267.02,154.92-163.82-53.58-192.91-211.43-192.91-211.43l-18.37-322.07Z"/>
      </g>
      <g class="cls-57">
        <path class="cls-7" d="m712.91,1075.82c-1.5-88.13,4.54-1280.77,1459.33-911.93,20.82-10.43,43.63-19.73,68.44-27.34C1685.74-114.8,962.95-51.96,764.99,602.93c-52.04,172.05-55.52,330.59-52.08,472.89Z"/>
      </g>
      <g class="cls-61">
        <polygon class="cls-7" points="1713.44 854.7 2225.09 1082.93 2255.14 1610.97 2255.14 1047.61 2254.96 1035.46 2201.16 1017.49 1713.44 854.7"/>
      </g>
      <g class="cls-69">
        <path class="cls-3" d="m1958.07,1474.27l18.37,322.07s29.1,157.85,192.91,211.43c-157.67-60.72-178.67-219.56-178.67-219.56l-16.32-323.09-240.16-173.99,223.87,183.14Z"/>
      </g>
    </g>
  </g>
</svg>