<?xml version="1.0" encoding="UTF-8"?>
<svg id="Calque_2" data-name="Calque 2" xmlns="http://www.w3.org/2000/svg" xmlns:xlink="http://www.w3.org/1999/xlink" viewBox="0 0 1592.18 2007.77">
  <defs>
    <style>
      .cls-1 {
        filter: url(#luminosity-noclip-11);
      }

      .cls-2 {
        fill: url(#linear-gradient-8);
      }

      .cls-2, .cls-3, .cls-4, .cls-5, .cls-6, .cls-7, .cls-8, .cls-9, .cls-10, .cls-11, .cls-12, .cls-13, .cls-14, .cls-15, .cls-16, .cls-17, .cls-18, .cls-19, .cls-20, .cls-21, .cls-22, .cls-23, .cls-24, .cls-25, .cls-26, .cls-27, .cls-28 {
        stroke-width: 0px;
      }

      .cls-2, .cls-5, .cls-7, .cls-10, .cls-13, .cls-18, .cls-19, .cls-22, .cls-23, .cls-27 {
        fill-rule: evenodd;
      }

      .cls-3 {
        fill: #fefefe;
      }

      .cls-4 {
        fill: url(#linear-gradient-17);
      }

      .cls-5 {
        fill: url(#linear-gradient-7);
      }

      .cls-29 {
        mask: url(#mask-23);
      }

      .cls-6 {
        fill: url(#linear-gradient-19);
      }

      .cls-30 {
        mask: url(#mask-10);
      }

      .cls-7 {
        fill: #ff897d;
      }

      .cls-8 {
        fill: url(#linear-gradient-12);
      }

      .cls-8, .cls-9, .cls-15, .cls-17, .cls-24, .cls-25, .cls-26, .cls-28 {
        mix-blend-mode: multiply;
      }

      .cls-31 {
        filter: url(#luminosity-noclip-7);
      }

      .cls-9 {
        fill: url(#linear-gradient-16);
      }

      .cls-10 {
        fill: url(#linear-gradient-9);
      }

      .cls-11 {
        fill: url(#linear-gradient-21);
      }

      .cls-32 {
        filter: url(#luminosity-noclip-13);
      }

      .cls-33 {
        mask: url(#mask-17);
      }

      .cls-12 {
        fill: url(#linear-gradient-6);
      }

      .cls-34 {
        filter: url(#luminosity-noclip-5);
      }

      .cls-35 {
        mask: url(#mask-2);
      }

      .cls-13 {
        fill: url(#linear-gradient-3);
      }

      .cls-36 {
        mask: url(#mask-13);
      }

      .cls-14 {
        fill: url(#linear-gradient-15);
      }

      .cls-15 {
        fill: url(#linear-gradient-14);
      }

      .cls-16 {
        fill: url(#linear-gradient-11);
      }

      .cls-37 {
        mask: url(#mask-3);
      }

      .cls-17 {
        fill: url(#linear-gradient-5);
      }

      .cls-18 {
        fill: #fb0047;
      }

      .cls-38 {
        filter: url(#luminosity-noclip-15);
      }

      .cls-39 {
        mask: url(#mask-9);
      }

      .cls-19 {
        fill: #69044a;
      }

      .cls-40 {
        mask: url(#mask-12);
      }

      .cls-41 {
        mask: url(#mask-5);
      }

      .cls-20 {
        fill: url(#linear-gradient-13);
      }

      .cls-21 {
        fill: url(#linear-gradient-23);
      }

      .cls-42 {
        mask: url(#mask-20);
      }

      .cls-22 {
        fill: url(#linear-gradient);
      }

      .cls-43 {
        filter: url(#luminosity-noclip-9);
      }

      .cls-44 {
        mask: url(#mask-8);
      }

      .cls-23 {
        fill: url(#linear-gradient-2);
      }

      .cls-45 {
        mask: url(#mask-4);
      }

      .cls-46 {
        mask: url(#mask-19);
      }

      .cls-47 {
        mask: url(#mask-15);
      }

      .cls-24 {
        fill: url(#linear-gradient-18);
      }

      .cls-25 {
        fill: url(#linear-gradient-10);
      }

      .cls-48 {
        mask: url(#mask-6);
      }

      .cls-49 {
        mask: url(#mask-16);
      }

      .cls-50 {
        mask: url(#mask-18);
      }

      .cls-51 {
        filter: url(#luminosity-noclip);
      }

      .cls-52 {
        mask: url(#mask-1);
      }

      .cls-53 {
        mask: url(#mask);
      }

      .cls-54 {
        mask: url(#mask-22);
      }

      .cls-55 {
        mask: url(#mask-7);
      }

      .cls-56 {
        mask: url(#mask-14);
      }

      .cls-57 {
        mask: url(#mask-21);
      }

      .cls-26 {
        fill: url(#linear-gradient-20);
      }

      .cls-27 {
        fill: url(#linear-gradient-4);
      }

      .cls-58 {
        mask: url(#mask-11);
      }

      .cls-28 {
        fill: url(#linear-gradient-22);
      }

      .cls-59 {
        filter: url(#luminosity-noclip-3);
      }
    </style>
    <linearGradient id="linear-gradient" x1="848.55" y1="-3630.95" x2="1070.65" y2="-4452.4" gradientTransform="translate(-109.32 -3226.95) scale(.98 -.98)" gradientUnits="userSpaceOnUse">
      <stop offset="0" stop-color="#69044a"/>
      <stop offset="1" stop-color="#fb0047"/>
    </linearGradient>
    <linearGradient id="linear-gradient-2" x1="389.19" y1="-4813.33" x2="908.29" y2="-4687.55" xlink:href="#linear-gradient"/>
    <linearGradient id="linear-gradient-3" x1="922.34" y1="-5240.29" x2="1217.92" y2="-4700.29" xlink:href="#linear-gradient"/>
    <linearGradient id="linear-gradient-4" x1="1076.08" y1="-4122.76" x2="929.58" y2="-4631.97" gradientTransform="translate(-109.32 -3226.95) scale(.98 -.98)" gradientUnits="userSpaceOnUse">
      <stop offset="0" stop-color="#69044a"/>
      <stop offset="1" stop-color="#ba0082"/>
    </linearGradient>
    <filter id="luminosity-noclip" x="737.68" y="943.48" width="273.65" height="273.65" color-interpolation-filters="sRGB" filterUnits="userSpaceOnUse">
      <feFlood flood-color="#fff" result="bg"/>
      <feBlend in="SourceGraphic" in2="bg"/>
    </filter>
    <filter id="luminosity-noclip-2" x="737.68" y="-6580.38" width="273.65" height="32766" color-interpolation-filters="sRGB" filterUnits="userSpaceOnUse">
      <feFlood flood-color="#fff" result="bg"/>
      <feBlend in="SourceGraphic" in2="bg"/>
    </filter>
    <mask id="mask-2" x="737.68" y="-6580.38" width="273.65" height="32766" maskUnits="userSpaceOnUse"/>
    <linearGradient id="linear-gradient-5" x1="976.52" y1="-4180.97" x2="1002.4" y2="-4399.49" gradientTransform="translate(-109.32 -3226.95) scale(.98 -.98)" gradientUnits="userSpaceOnUse">
      <stop offset="0" stop-color="#fff"/>
      <stop offset="1" stop-color="#000"/>
    </linearGradient>
    <mask id="mask-1" x="737.68" y="943.48" width="273.65" height="273.65" maskUnits="userSpaceOnUse">
      <g class="cls-51">
        <g class="cls-35">
          <rect class="cls-17" x="737.68" y="943.48" width="273.65" height="273.65"/>
        </g>
      </g>
    </mask>
    <linearGradient id="linear-gradient-6" x1="976.52" y1="-4180.97" x2="1002.4" y2="-4399.49" gradientTransform="translate(-109.32 -3226.95) scale(.98 -.98)" gradientUnits="userSpaceOnUse">
      <stop offset="0" stop-color="#fff"/>
      <stop offset="1" stop-color="#fff"/>
    </linearGradient>
    <mask id="mask" x="737.68" y="943.48" width="273.65" height="273.65" maskUnits="userSpaceOnUse">
      <g id="id44">
        <g class="cls-52">
          <rect class="cls-12" x="737.68" y="943.48" width="273.65" height="273.65"/>
        </g>
      </g>
    </mask>
    <linearGradient id="linear-gradient-7" x1="999.7" y1="-4254.21" x2="999.74" y2="-4558.68" gradientTransform="translate(-109.32 -3226.95) scale(.98 -.98)" gradientUnits="userSpaceOnUse">
      <stop offset="0" stop-color="#69044a"/>
      <stop offset="1" stop-color="#69044a"/>
    </linearGradient>
    <linearGradient id="linear-gradient-8" x1="1808.21" y1="-4685.33" x2="1161" y2="-4734.53" xlink:href="#linear-gradient-4"/>
    <linearGradient id="linear-gradient-9" x1="462.46" y1="-3418.95" x2="911.98" y2="-4137.5" xlink:href="#linear-gradient-4"/>
    <filter id="luminosity-noclip-3" x="333.6" y="291.7" width="991.34" height="550.95" color-interpolation-filters="sRGB" filterUnits="userSpaceOnUse">
      <feFlood flood-color="#fff" result="bg"/>
      <feBlend in="SourceGraphic" in2="bg"/>
    </filter>
    <filter id="luminosity-noclip-4" x="333.6" y="-6580.38" width="991.34" height="32766" color-interpolation-filters="sRGB" filterUnits="userSpaceOnUse">
      <feFlood flood-color="#fff" result="bg"/>
      <feBlend in="SourceGraphic" in2="bg"/>
    </filter>
    <mask id="mask-5" x="333.6" y="-6580.38" width="991.34" height="32766" maskUnits="userSpaceOnUse"/>
    <linearGradient id="linear-gradient-10" x1="729.39" y1="-3505.86" x2="907.53" y2="-3783.41" xlink:href="#linear-gradient-5"/>
    <mask id="mask-4" x="333.6" y="291.7" width="991.34" height="550.95" maskUnits="userSpaceOnUse">
      <g class="cls-59">
        <g class="cls-41">
          <rect class="cls-25" x="333.6" y="291.7" width="991.34" height="550.95"/>
        </g>
      </g>
    </mask>
    <linearGradient id="linear-gradient-11" x1="729.39" y1="-3505.86" x2="907.53" y2="-3783.41" xlink:href="#linear-gradient-6"/>
    <mask id="mask-3" x="333.6" y="291.7" width="991.34" height="550.95" maskUnits="userSpaceOnUse">
      <g id="id46">
        <g class="cls-45">
          <rect class="cls-16" x="333.6" y="291.7" width="991.34" height="550.95"/>
        </g>
      </g>
    </mask>
    <filter id="luminosity-noclip-5" x="594.1" y="811.11" width="560.76" height="307.25" color-interpolation-filters="sRGB" filterUnits="userSpaceOnUse">
      <feFlood flood-color="#fff" result="bg"/>
      <feBlend in="SourceGraphic" in2="bg"/>
    </filter>
    <filter id="luminosity-noclip-6" x="594.1" y="-6580.38" width="560.76" height="32766" color-interpolation-filters="sRGB" filterUnits="userSpaceOnUse">
      <feFlood flood-color="#fff" result="bg"/>
      <feBlend in="SourceGraphic" in2="bg"/>
    </filter>
    <mask id="mask-8" x="594.1" y="-6580.38" width="560.76" height="32766" maskUnits="userSpaceOnUse"/>
    <linearGradient id="linear-gradient-12" x1="1004.84" y1="-3986.89" x2="998.63" y2="-4316.2" xlink:href="#linear-gradient-5"/>
    <mask id="mask-7" x="594.1" y="811.11" width="560.76" height="307.25" maskUnits="userSpaceOnUse">
      <g class="cls-34">
        <g class="cls-44">
          <rect class="cls-8" x="594.1" y="811.11" width="560.76" height="307.25"/>
        </g>
      </g>
    </mask>
    <linearGradient id="linear-gradient-13" x1="1004.84" y1="-3986.89" x2="998.63" y2="-4316.2" xlink:href="#linear-gradient-6"/>
    <mask id="mask-6" x="594.1" y="811.11" width="560.76" height="307.25" maskUnits="userSpaceOnUse">
      <g id="id48">
        <g class="cls-55">
          <rect class="cls-20" x="594.1" y="811.11" width="560.76" height="307.25"/>
        </g>
      </g>
    </mask>
    <filter id="luminosity-noclip-7" x="295.86" y="434.36" width="1200.25" height="694.06" color-interpolation-filters="sRGB" filterUnits="userSpaceOnUse">
      <feFlood flood-color="#fff" result="bg"/>
      <feBlend in="SourceGraphic" in2="bg"/>
    </filter>
    <filter id="luminosity-noclip-8" x="295.86" y="-6580.38" width="1200.25" height="32766" color-interpolation-filters="sRGB" filterUnits="userSpaceOnUse">
      <feFlood flood-color="#fff" result="bg"/>
      <feBlend in="SourceGraphic" in2="bg"/>
    </filter>
    <mask id="mask-11" x="295.86" y="-6580.38" width="1200.25" height="32766" maskUnits="userSpaceOnUse"/>
    <linearGradient id="linear-gradient-14" x1="870.35" y1="-3239.71" x2="1031.75" y2="-4129.33" xlink:href="#linear-gradient-5"/>
    <mask id="mask-10" x="295.86" y="434.36" width="1200.25" height="694.06" maskUnits="userSpaceOnUse">
      <g class="cls-31">
        <g class="cls-58">
          <rect class="cls-15" x="295.86" y="434.36" width="1200.25" height="694.06"/>
        </g>
      </g>
    </mask>
    <linearGradient id="linear-gradient-15" x1="870.35" y1="-3239.71" x2="1031.75" y2="-4129.33" xlink:href="#linear-gradient-6"/>
    <mask id="mask-9" x="295.86" y="434.36" width="1200.25" height="694.06" maskUnits="userSpaceOnUse">
      <g id="id50">
        <g class="cls-30">
          <rect class="cls-14" x="295.86" y="434.36" width="1200.25" height="694.06"/>
        </g>
      </g>
    </mask>
    <filter id="luminosity-noclip-9" x="1009.9" y="1291.02" width="496.61" height="716.86" color-interpolation-filters="sRGB" filterUnits="userSpaceOnUse">
      <feFlood flood-color="#fff" result="bg"/>
      <feBlend in="SourceGraphic" in2="bg"/>
    </filter>
    <filter id="luminosity-noclip-10" x="1009.9" y="-6580.38" width="496.61" height="32766" color-interpolation-filters="sRGB" filterUnits="userSpaceOnUse">
      <feFlood flood-color="#fff" result="bg"/>
      <feBlend in="SourceGraphic" in2="bg"/>
    </filter>
    <mask id="mask-14" x="1009.9" y="-6580.38" width="496.61" height="32766" maskUnits="userSpaceOnUse"/>
    <linearGradient id="linear-gradient-16" x1="1596.73" y1="-4848.96" x2="1273.63" y2="-5014.67" xlink:href="#linear-gradient-5"/>
    <mask id="mask-13" x="1009.9" y="1291.02" width="496.61" height="716.86" maskUnits="userSpaceOnUse">
      <g class="cls-43">
        <g class="cls-56">
          <rect class="cls-9" x="1009.9" y="1291.02" width="496.61" height="716.86"/>
        </g>
      </g>
    </mask>
    <linearGradient id="linear-gradient-17" x1="1596.73" y1="-4848.96" x2="1273.63" y2="-5014.67" xlink:href="#linear-gradient-6"/>
    <mask id="mask-12" x="1009.9" y="1291.02" width="496.61" height="716.86" maskUnits="userSpaceOnUse">
      <g id="id52">
        <g class="cls-36">
          <rect class="cls-4" x="1009.9" y="1291.02" width="496.61" height="716.86"/>
        </g>
      </g>
    </mask>
    <filter id="luminosity-noclip-11" x="48.9" y="-.1" width="1528.94" height="1076.03" color-interpolation-filters="sRGB" filterUnits="userSpaceOnUse">
      <feFlood flood-color="#fff" result="bg"/>
      <feBlend in="SourceGraphic" in2="bg"/>
    </filter>
    <filter id="luminosity-noclip-12" x="48.9" y="-6580.38" width="1528.94" height="32766" color-interpolation-filters="sRGB" filterUnits="userSpaceOnUse">
      <feFlood flood-color="#fff" result="bg"/>
      <feBlend in="SourceGraphic" in2="bg"/>
    </filter>
    <mask id="mask-17" x="48.9" y="-6580.38" width="1528.94" height="32766" maskUnits="userSpaceOnUse"/>
    <linearGradient id="linear-gradient-18" x1="691.54" y1="-3223.54" x2="848.96" y2="-3608.79" xlink:href="#linear-gradient-5"/>
    <mask id="mask-16" x="48.9" y="-.1" width="1528.94" height="1076.03" maskUnits="userSpaceOnUse">
      <g class="cls-1">
        <g class="cls-33">
          <rect class="cls-24" x="48.9" y="-.1" width="1528.94" height="1076.03"/>
        </g>
      </g>
    </mask>
    <linearGradient id="linear-gradient-19" x1="691.54" y1="-3223.54" x2="848.96" y2="-3608.79" xlink:href="#linear-gradient-6"/>
    <mask id="mask-15" x="48.9" y="-.1" width="1528.94" height="1076.03" maskUnits="userSpaceOnUse">
      <g id="id54">
        <g class="cls-49">
          <rect class="cls-6" x="48.9" y="-.1" width="1528.94" height="1076.03"/>
        </g>
      </g>
    </mask>
    <filter id="luminosity-noclip-13" x="1050.38" y="854.59" width="541.91" height="756.49" color-interpolation-filters="sRGB" filterUnits="userSpaceOnUse">
      <feFlood flood-color="#fff" result="bg"/>
      <feBlend in="SourceGraphic" in2="bg"/>
    </filter>
    <filter id="luminosity-noclip-14" x="1050.38" y="-6580.38" width="541.91" height="32766" color-interpolation-filters="sRGB" filterUnits="userSpaceOnUse">
      <feFlood flood-color="#fff" result="bg"/>
      <feBlend in="SourceGraphic" in2="bg"/>
    </filter>
    <mask id="mask-20" x="1050.38" y="-6580.38" width="541.91" height="32766" maskUnits="userSpaceOnUse"/>
    <linearGradient id="linear-gradient-20" x1="1743.15" y1="-4225.39" x2="1531.87" y2="-4449.12" xlink:href="#linear-gradient-5"/>
    <mask id="mask-19" x="1050.38" y="854.59" width="541.91" height="756.49" maskUnits="userSpaceOnUse">
      <g class="cls-32">
        <g class="cls-42">
          <rect class="cls-26" x="1050.38" y="854.59" width="541.91" height="756.49"/>
        </g>
      </g>
    </mask>
    <linearGradient id="linear-gradient-21" x1="1743.15" y1="-4225.39" x2="1531.87" y2="-4449.12" xlink:href="#linear-gradient-6"/>
    <mask id="mask-18" x="1050.38" y="854.59" width="541.91" height="756.49" maskUnits="userSpaceOnUse">
      <g id="id56">
        <g class="cls-46">
          <rect class="cls-11" x="1050.38" y="854.59" width="541.91" height="756.49"/>
        </g>
      </g>
    </mask>
    <filter id="luminosity-noclip-15" x="1071.13" y="1291.02" width="435.38" height="716.86" color-interpolation-filters="sRGB" filterUnits="userSpaceOnUse">
      <feFlood flood-color="#fff" result="bg"/>
      <feBlend in="SourceGraphic" in2="bg"/>
    </filter>
    <filter id="luminosity-noclip-16" x="1071.13" y="-6580.38" width="435.38" height="32766" color-interpolation-filters="sRGB" filterUnits="userSpaceOnUse">
      <feFlood flood-color="#fff" result="bg"/>
      <feBlend in="SourceGraphic" in2="bg"/>
    </filter>
    <mask id="mask-23" x="1071.13" y="-6580.38" width="435.38" height="32766" maskUnits="userSpaceOnUse"/>
    <linearGradient id="linear-gradient-22" x1="1798" y1="-4852.31" x2="1319.55" y2="-4982.77" xlink:href="#linear-gradient-5"/>
    <mask id="mask-22" x="1071.13" y="1291.02" width="435.38" height="716.86" maskUnits="userSpaceOnUse">
      <g class="cls-38">
        <g class="cls-29">
          <rect class="cls-28" x="1071.13" y="1291.02" width="435.38" height="716.86"/>
        </g>
      </g>
    </mask>
    <linearGradient id="linear-gradient-23" x1="1798" y1="-4852.31" x2="1319.55" y2="-4982.77" xlink:href="#linear-gradient-6"/>
    <mask id="mask-21" x="1071.13" y="1291.02" width="435.38" height="716.86" maskUnits="userSpaceOnUse">
      <g id="id58">
        <g class="cls-54">
          <rect class="cls-21" x="1071.13" y="1291.02" width="435.38" height="716.86"/>
        </g>
      </g>
    </mask>
  </defs>
  <g id="Logo_Solo" data-name="Logo Solo">
    <g>
      <path class="cls-22" d="m594.21,1091.52c0-154.81,125.5-280.31,280.27-280.31,31.58,0,61.92,5.23,90.25,14.86l573.46,191.41c-19.98-325.32-290.15-583.01-620.53-583.01s-621.7,278.33-621.7,621.7c0,119.6,33.78,231.34,92.34,326.17,0,0,147.71-.59,207.88-257.32-1.28-10.98-1.98-22.14-1.98-33.49h0Z"/>
      <path class="cls-23" d="m746.32,1340.83c-80.88-41.69-138.89-121.54-150.13-215.82-60.17,256.74-207.88,257.32-207.88,257.32,99.58,161.33,270.9,273.72,469.49,292.68-153.49-140.8-111.48-334.18-111.48-334.18h0Z"/>
      <path class="cls-13" d="m746.32,1340.83s-42.02,193.39,111.48,334.18c73.2,67.16,190.82,122.31,378.69,138.85l-21.59-291.25-204.88-185.74c-40.15,22.25-86.34,34.92-135.52,34.92-46.19,0-89.74-11.16-128.17-30.96Z"/>
      <path class="cls-27" d="m746.32,1340.83c38.43,19.8,81.98,30.96,128.17,30.96,49.19,0,95.38-12.66,135.52-34.92,86.34-47.76,144.75-139.73,144.75-245.36,0-123.23-79.49-227.9-190.02-265.45-28.33-9.62-58.67-14.86-90.25-14.86-154.78,0-280.27,125.5-280.27,280.31,0,11.35.7,22.51,1.98,33.49,11.24,94.28,69.24,174.14,150.13,215.82h0Z"/>
      <g class="cls-53">
        <path class="cls-7" d="m812.01,1202.09c19.43,9.99,40.66,15.04,62.47,15.04,23.24,0,45.75-5.71,66.06-16.94,43.66-24.16,70.78-69.83,70.78-119.9,0-58.59-37.37-110.78-92.74-129.6-14.24-4.83-29.1-7.21-44.1-7.21-75.61,0-136.81,61.19-136.81,136.8,0,5.53.33,11.05.95,16.54,5.38,45.09,33.16,84.54,73.38,105.26h0Z"/>
      </g>
      <path class="cls-5" d="m812.01,1213.29c19.43,9.99,40.66,15.04,62.47,15.04,23.24,0,45.75-5.71,66.06-16.94,43.66-24.16,70.78-69.79,70.78-119.86,0-58.63-37.37-110.82-92.74-129.63-14.24-4.83-29.1-7.21-44.1-7.21-75.61,0-136.81,61.23-136.81,136.84,0,5.53.33,11.05.95,16.54,5.38,45.05,33.16,84.51,73.38,105.22Z"/>
      <path class="cls-2" d="m1010.01,1336.88l204.88,185.74,21.59,291.25,2.89,38.98c16.29,108.04,267.02,154.92,267.02,154.92l-34.66-652.3c-176.59-69.65-209.97-271.08-209.97-271.08l238.51,93.77.81,324.48,91.09,108.33v-563.36l-.18-12.15-53.8-17.97-573.46-191.41c110.53,37.55,190.02,142.22,190.02,265.45,0,105.62-58.41,197.6-144.75,245.36h0Z"/>
      <path class="cls-19" d="m1324.94,336.32C415.83,132.46,333.6,842.66,333.6,842.66c87.1-238.18,315.74-408.18,584.08-408.18,130.62,0,251.87,40.29,351.9,109.1l55.37-207.26h0Z"/>
      <path class="cls-10" d="m333.6,842.65s82.24-710.19,991.34-506.34c0,0,73.38-144.75,252.79-199.76C1022.78-114.8,300-51.96,102.04,602.93-19.95,1006.29,124.95,1335.38,0,1555.23c232.4-150.82,300.11-426.92,300.11-426.92-2.74-23.64-4.14-47.72-4.14-72.14,0-75.03,13.29-146.94,37.62-213.52h0Z"/>
      <g class="cls-37">
        <path class="cls-7" d="m333.6,842.65s82.24-710.19,991.34-506.34C389.34,105.96,333.6,842.65,333.6,842.65Z"/>
      </g>
      <path class="cls-18" d="m388.31,1382.34c-46.63-75.47-77.52-161.66-88.2-254.03,0,0-67.71,276.1-300.11,426.92,0,0,258.82,25.18,388.31-172.89h0Z"/>
      <g class="cls-48">
        <path class="cls-7" d="m874.49,864.72c31.58,0,61.92,5.2,90.25,14.82,102.44,34.8,178.23,127.25,188.78,238.7.84-8.78,1.24-17.71,1.24-26.72,0-123.23-79.49-227.9-190.02-265.45-28.33-9.62-58.67-14.86-90.25-14.86-154.78,0-280.27,125.5-280.27,280.31,0,9,.44,17.93,1.28,26.72,13.47-142.26,133.22-253.52,278.99-253.52Z"/>
      </g>
      <g class="cls-39">
        <path class="cls-7" d="m1177.89,594c155.84,46.74,318.11,233.54,318.11,233.54-45.71-115.47-124.95-213.95-225.74-283.49-.22-.15-.44-.29-.7-.48-100.02-68.8-221.27-109.1-351.9-109.1-188.59,0-357.53,83.96-471.57,216.55-48.2,56.07-86.59,120.85-112.5,191.63-24.34,66.57-37.62,138.49-37.62,213.52,0,24.41,1.39,48.49,4.14,72.14,0,0,8.78-287.3,205.32-461.65,74.62,17.28,152.36,26.42,232.25,26.42,157.56,0,306.81-35.57,440.21-99.07Z"/>
      </g>
      <g class="cls-40">
        <path class="cls-18" d="m1295.11,1474.27l-223.87-183.14c-18.15,17.9-38.72,33.34-61.23,45.75l204.88,185.74,21.59,291.25,2.89,38.98c16.29,108.04,267.02,154.92,267.02,154.92-163.82-53.58-192.91-211.43-192.91-211.43l-18.37-322.07Z"/>
      </g>
      <g class="cls-47">
        <path class="cls-7" d="m49.96,1075.82c-1.5-88.13,4.54-1280.77,1459.33-911.93,20.82-10.43,43.63-19.73,68.44-27.34C1022.78-114.8,300-51.96,102.04,602.93c-52.04,172.05-55.52,330.59-52.08,472.89Z"/>
      </g>
      <g class="cls-50">
        <polygon class="cls-7" points="1050.49 854.7 1562.14 1082.93 1592.18 1610.97 1592.18 1047.61 1592 1035.46 1538.2 1017.49 1050.49 854.7"/>
      </g>
      <g class="cls-57">
        <path class="cls-3" d="m1295.11,1474.27l18.37,322.07s29.1,157.85,192.91,211.43c-157.67-60.72-178.67-219.56-178.67-219.56l-16.32-323.09-240.16-173.99,223.87,183.14Z"/>
      </g>
    </g>
  </g>
</svg>